<?xml version="1.0" standalone="no"?>
<!DOCTYPE svg PUBLIC "-//W3C//DTD SVG 20010904//EN"
 "http://www.w3.org/TR/2001/REC-SVG-20010904/DTD/svg10.dtd">
<svg version="1.0" xmlns="http://www.w3.org/2000/svg"
 width="427.000000pt" height="118.000000pt" viewBox="0 0 427.000000 118.000000"
 preserveAspectRatio="xMidYMid meet">

<g transform="translate(0.000000,118.000000) scale(0.100000,-0.100000)"
fill="#00bcd4" stroke="none">
<path d="M3821 1037 c-6 -8 -8 -17 -4 -20 3 -4 -1 -15 -11 -25 -9 -11 -14 -26
-10 -36 4 -11 1 -16 -10 -16 -9 0 -16 -8 -16 -20 0 -18 1 -18 23 3 16 15 20
26 14 35 -7 9 -3 20 13 37 13 14 20 25 16 25 -5 0 -3 7 4 15 7 8 8 15 2 15 -5
0 -15 -6 -21 -13z"/>
<path d="M3870 950 c-6 -11 -7 -20 -2 -20 6 0 12 9 15 20 3 11 3 20 1 20 -2 0
-8 -9 -14 -20z"/>
<path d="M3724 908 l-19 -23 23 19 c21 18 27 26 19 26 -2 0 -12 -10 -23 -22z"/>
<path d="M3995 850 c4 -6 11 -8 16 -5 14 9 11 15 -7 15 -8 0 -12 -5 -9 -10z"/>
<path d="M4071 839 c5 -11 14 -17 20 -14 15 10 10 22 -11 28 -17 4 -18 2 -9
-14z"/>
<path d="M123 843 l-43 -4 0 -329 0 -329 57 -7 c85 -10 240 2 314 25 83 26
148 81 186 159 26 52 28 67 28 167 0 100 -2 115 -27 161 -73 138 -222 183
-515 157z m301 -137 c60 -35 88 -93 88 -184 0 -150 -77 -231 -219 -232 l-63 0
0 219 c0 166 3 221 13 225 31 14 137 -2 181 -28z"/>
<path d="M3583 843 c9 -2 23 -2 30 0 6 3 -1 5 -18 5 -16 0 -22 -2 -12 -5z"/>
<path d="M3910 830 c0 -11 4 -20 9 -20 5 0 7 9 4 20 -3 11 -7 20 -9 20 -2 0
-4 -9 -4 -20z"/>
<path d="M3153 781 c-139 -48 -213 -154 -213 -307 0 -85 23 -153 70 -207 49
-55 103 -83 192 -97 68 -10 192 0 210 18 4 4 5 29 2 55 l-7 46 -77 -6 c-89 -7
-141 6 -183 46 -37 34 -45 50 -57 111 -14 75 3 142 48 190 55 57 106 67 246
48 15 -2 22 7 32 47 7 27 11 51 9 53 -2 2 -21 8 -42 13 -63 14 -174 10 -230
-10z"/>
<path d="M2362 558 c3 -217 5 -236 25 -274 48 -90 143 -134 256 -119 97 12
151 47 190 120 20 37 22 59 27 273 l5 232 -67 0 -68 0 0 -187 c0 -199 -7 -251
-38 -292 -27 -36 -83 -49 -126 -29 -59 29 -66 59 -66 297 l0 211 -71 0 -71 0
4 -232z"/>
<path d="M3821 764 c0 -11 3 -14 6 -6 3 7 2 16 -1 19 -3 4 -6 -2 -5 -13z"/>
<path d="M3910 775 c0 -5 5 -17 10 -25 5 -8 10 -10 10 -5 0 6 -5 17 -10 25 -5
8 -10 11 -10 5z"/>
<path d="M3981 737 c-13 -21 -12 -21 5 -5 10 10 16 20 13 22 -3 3 -11 -5 -18
-17z"/>
<path d="M3688 738 c5 -5 16 -8 23 -6 8 3 3 7 -10 11 -17 4 -21 3 -13 -5z"/>
<path d="M3835 730 c3 -5 8 -10 11 -10 2 0 4 5 4 10 0 6 -5 10 -11 10 -5 0 -7
-4 -4 -10z"/>
<path d="M4075 730 c3 -5 8 -10 11 -10 2 0 4 5 4 10 0 6 -5 10 -11 10 -5 0 -7
-4 -4 -10z"/>
<path d="M4120 719 c0 -5 5 -7 10 -4 6 3 10 8 10 11 0 2 -4 4 -10 4 -5 0 -10
-5 -10 -11z"/>
<path d="M4041 694 c0 -11 3 -14 6 -6 3 7 2 16 -1 19 -3 4 -6 -2 -5 -13z"/>
<path d="M3550 682 c0 -12 3 -12 15 -2 8 7 15 13 15 15 0 1 -7 2 -15 2 -8 0
-15 -7 -15 -15z"/>
<path d="M4118 688 c6 -6 18 -8 28 -6 14 3 12 5 -9 10 -19 3 -25 2 -19 -4z"/>
<path d="M3932 678 c-7 -7 -12 -20 -12 -30 0 -10 -11 -23 -24 -28 -13 -5 -27
-15 -31 -22 -6 -10 -5 -11 6 0 7 6 21 12 30 12 10 0 20 9 24 19 4 13 12 18 23
15 12 -4 13 -3 4 3 -7 5 -10 17 -6 26 7 20 3 22 -14 5z"/>
<path d="M1411 655 c-64 -20 -128 -87 -148 -154 -30 -103 -1 -217 69 -276 50
-42 90 -55 171 -55 59 0 83 5 125 26 121 60 165 220 97 354 -51 101 -184 145
-314 105z m151 -112 c44 -39 51 -178 11 -231 -79 -106 -202 14 -163 159 24 89
96 123 152 72z"/>
<path d="M1987 656 c-94 -35 -156 -108 -171 -201 -9 -58 10 -144 42 -190 44
-63 100 -89 207 -93 50 -2 102 1 116 6 25 10 26 12 16 64 l-10 55 -46 -9 c-99
-20 -171 37 -171 134 0 95 55 143 158 136 l57 -3 9 47 c5 27 6 51 3 55 -15 14
-172 13 -210 -1z"/>
<path d="M732 478 c3 -173 4 -185 28 -228 30 -54 76 -80 143 -80 50 0 112 25
138 56 13 16 14 15 19 -12 5 -28 7 -29 70 -32 l65 -3 -3 241 -3 240 -74 0 -75
0 0 -160 c0 -157 -1 -161 -25 -185 -25 -26 -63 -32 -95 -15 -31 16 -40 67 -40
216 l0 144 -76 0 -76 0 4 -182z"/>
<path d="M4089 643 c-13 -16 -12 -17 4 -4 16 13 21 21 13 21 -2 0 -10 -8 -17
-17z"/>
<path d="M3991 600 c0 -14 28 -72 29 -59 0 4 -7 22 -15 40 -8 19 -14 27 -14
19z"/>
<path d="M4100 589 c0 -5 5 -7 10 -4 6 3 10 8 10 11 0 2 -4 4 -10 4 -5 0 -10
-5 -10 -11z"/>
<path d="M3548 563 c7 -3 16 -2 19 1 4 3 -2 6 -13 5 -11 0 -14 -3 -6 -6z"/>
<path d="M4129 523 c-13 -17 -13 -17 6 -3 11 8 22 16 24 17 2 2 0 3 -6 3 -6 0
-17 -8 -24 -17z"/>
<path d="M4133 493 c9 -2 23 -2 30 0 6 3 -1 5 -18 5 -16 0 -22 -2 -12 -5z"/>
<path d="M4128 453 c7 -3 16 -2 19 1 4 3 -2 6 -13 5 -11 0 -14 -3 -6 -6z"/>
<path d="M3528 423 c6 -2 18 -2 25 0 6 3 1 5 -13 5 -14 0 -19 -2 -12 -5z"/>
<path d="M3685 419 c-4 -6 -14 -8 -23 -4 -13 5 -12 2 3 -13 23 -22 24 -22 30
7 4 23 0 27 -10 10z"/>
<path d="M3886 335 c-9 -26 -7 -32 5 -12 6 10 9 21 6 23 -2 3 -7 -2 -11 -11z"/>
<path d="M3630 327 c0 -2 15 -16 33 -33 l32 -29 -29 33 c-28 30 -36 37 -36 29z"/>
<path d="M3952 300 c0 -19 2 -27 5 -17 2 9 2 25 0 35 -3 9 -5 1 -5 -18z"/>
<path d="M4106 317 c3 -10 9 -15 12 -12 3 3 0 11 -7 18 -10 9 -11 8 -5 -6z"/>
<path d="M3595 300 c-3 -5 -1 -10 4 -10 6 0 11 5 11 10 0 6 -2 10 -4 10 -3 0
-8 -4 -11 -10z"/>
<path d="M3980 235 c0 -15 18 -40 24 -34 3 3 -1 14 -9 25 -8 10 -14 15 -15 9z"/>
<path d="M3675 219 c-4 -6 -5 -12 -2 -15 2 -3 7 2 10 11 7 17 1 20 -8 4z"/>
<path d="M3707 211 c-4 -17 -3 -21 5 -13 5 5 8 16 6 23 -3 8 -7 3 -11 -10z"/>
<path d="M3917 189 c4 -13 8 -18 11 -10 2 7 -1 18 -6 23 -8 8 -9 4 -5 -13z"/>
<path d="M3794 189 c-3 -6 -2 -15 3 -20 5 -5 9 -1 9 11 0 23 -2 24 -12 9z"/>
</g>
</svg>
