<?xml version="1.0" standalone="no"?>
<!DOCTYPE svg PUBLIC "-//W3C//DTD SVG 20010904//EN"
 "http://www.w3.org/TR/2001/REC-SVG-20010904/DTD/svg10.dtd">
<svg version="1.0" xmlns="http://www.w3.org/2000/svg"
 width="626.000000pt" height="532.000000pt" viewBox="0 0 626.000000 532.000000"
 preserveAspectRatio="xMidYMid meet">

<g transform="translate(0.000000,532.000000) scale(0.100000,-0.100000)"
fill="#00bcd4" stroke="none">
<path d="M2690 3590 c-278 -120 -517 -225 -532 -234 -31 -17 -38 -59 -15 -88
12 -16 1056 -468 1080 -468 7 0 134 52 282 116 149 64 280 120 293 125 l22 9
0 -210 0 -210 -57 -45 c-237 -186 -582 -236 -860 -125 -76 31 -185 93 -239
138 -30 25 -33 31 -33 90 -1 53 -5 67 -26 87 -29 30 -49 31 -75 5 -17 -17 -20
-33 -20 -111 0 -89 0 -91 33 -120 133 -124 278 -202 459 -246 112 -28 355 -24
468 5 152 41 354 154 440 247 l25 27 5 260 5 261 110 49 c60 26 117 51 127 54
17 5 18 -4 18 -121 0 -124 -1 -128 -25 -147 -75 -59 -71 -191 8 -283 27 -32
39 -38 74 -39 34 0 48 5 73 29 43 41 73 127 67 194 -3 47 -9 59 -40 88 l-37
33 0 184 c0 173 -1 184 -21 202 -20 18 -44 19 -560 19 -465 0 -540 -2 -553
-15 -24 -26 -28 -56 -9 -79 18 -22 20 -22 403 -22 323 0 381 -3 360 -14 -39
-20 -708 -305 -717 -305 -10 0 -883 374 -879 377 1 2 200 87 441 191 l438 189
210 -90 c199 -85 212 -89 236 -76 33 18 40 68 14 91 -27 24 -437 198 -464 197
-13 0 -251 -99 -529 -219z m1586 -755 c9 -21 -5 -87 -16 -80 -12 8 -24 71 -15
84 9 16 25 13 31 -4z"/>
<path d="M3776 3536 c-15 -14 -26 -30 -26 -36 0 -19 57 -70 77 -70 54 0 84 68
46 103 -34 30 -70 31 -97 3z"/>
<path d="M2527 2982 c-35 -38 -8 -122 38 -122 25 0 65 46 65 75 0 54 -69 85
-103 47z"/>
<path d="M2708 1819 c-24 -13 -23 -52 1 -73 42 -38 107 17 75 63 -16 22 -48
27 -76 10z"/>
<path d="M1370 1585 l0 -195 45 0 45 0 0 55 0 55 40 0 c37 0 42 -4 76 -55 36
-54 38 -55 86 -55 l49 0 -42 61 -41 62 31 24 c37 29 54 83 42 136 -19 81 -72
106 -223 107 l-108 0 0 -195z m205 111 c32 -14 35 -19 35 -55 0 -52 -26 -71
-97 -71 l-53 0 0 70 0 70 40 0 c22 0 56 -7 75 -14z"/>
<path d="M3981 1758 c-5 -13 -43 -99 -85 -192 -42 -94 -76 -171 -76 -173 0 -2
20 -3 45 -3 43 0 46 2 61 40 l16 40 93 0 92 0 18 -40 c17 -38 20 -40 62 -40
23 0 43 4 43 9 0 4 -37 91 -83 192 l-83 184 -47 3 c-41 3 -48 0 -56 -20z m88
-146 l30 -72 -60 0 c-32 0 -59 3 -59 7 0 12 53 143 56 140 2 -2 17 -36 33 -75z"/>
<path d="M4360 1585 l0 -195 45 0 45 0 0 55 0 55 68 0 c80 0 127 20 160 70 19
27 23 44 19 77 -11 99 -69 132 -229 133 l-108 0 0 -195z m232 95 c25 -30 22
-56 -7 -85 -20 -21 -34 -25 -80 -25 l-55 0 0 71 0 72 62 -6 c48 -4 67 -11 80
-27z"/>
<path d="M4820 1585 l0 -195 44 0 45 0 3 53 3 52 80 5 c122 8 165 46 165 145
0 33 -7 51 -27 76 -41 48 -78 59 -203 59 l-110 0 0 -195z m199 115 c40 -11 51
-24 51 -62 0 -47 -31 -68 -100 -68 l-60 0 0 63 c0 35 3 67 7 70 9 10 63 8 102
-3z"/>
<path d="M3297 1753 c-4 -3 -7 -21 -7 -40 0 -26 -4 -33 -20 -33 -16 0 -20 -7
-20 -30 0 -23 5 -30 19 -30 16 0 19 -11 23 -85 4 -53 12 -94 22 -109 22 -35
79 -51 127 -37 37 11 37 12 27 41 -8 25 -14 29 -34 24 -42 -11 -54 10 -54 92
l0 74 40 0 c38 0 40 2 40 30 0 28 -2 30 -40 30 l-40 0 0 40 c0 40 0 40 -38 40
-21 0 -42 -3 -45 -7z"/>
<path d="M1892 1673 c-52 -26 -77 -69 -77 -135 0 -65 20 -100 76 -133 43 -25
131 -26 177 -2 37 20 38 24 13 54 -18 22 -20 22 -51 7 -20 -10 -43 -14 -63
-10 -31 6 -67 32 -67 47 0 5 51 10 113 11 l112 3 -2 39 c-5 81 -67 136 -153
136 -25 0 -60 -8 -78 -17z m135 -64 c7 -6 13 -20 13 -30 0 -17 -8 -19 -70 -19
-79 0 -90 13 -43 50 29 22 72 22 100 -1z"/>
<path d="M2301 1672 c-52 -26 -75 -63 -75 -122 0 -54 18 -87 68 -124 32 -25
124 -28 150 -7 22 19 32 6 20 -27 -14 -40 -53 -55 -111 -44 -27 5 -56 13 -65
17 -12 5 -21 -1 -32 -23 -15 -30 -15 -30 20 -47 48 -23 159 -23 205 -1 64 30
74 60 77 239 l4 157 -41 0 c-30 0 -41 -4 -41 -15 0 -19 -11 -19 -36 0 -26 20
-102 19 -143 -3z m149 -74 c55 -59 -9 -147 -86 -118 -55 21 -69 68 -33 114 27
34 88 37 119 4z"/>
<path d="M2700 1540 l0 -150 45 0 45 0 0 150 0 150 -45 0 -45 0 0 -150z"/>
<path d="M2960 1672 c-41 -20 -61 -56 -53 -95 7 -36 49 -63 112 -72 56 -8 76
-22 60 -41 -14 -17 -74 -18 -118 -3 -35 12 -45 7 -55 -27 -9 -29 37 -47 118
-48 99 -1 160 48 142 117 -8 32 -41 51 -118 67 -59 12 -72 26 -43 50 14 12 55
10 110 -6 16 -4 23 2 32 25 10 28 9 30 -20 40 -46 17 -128 13 -167 -7z"/>
<path d="M3590 1540 l0 -150 39 0 39 0 4 90 c5 101 20 130 70 130 26 0 28 3
28 40 0 34 -3 40 -20 40 -12 0 -34 -7 -50 -15 -27 -14 -30 -14 -30 0 0 11 -11
15 -40 15 l-40 0 0 -150z"/>
</g>
</svg>
